<svg width="160" height="29" viewBox="0 0 160 29" fill="none" xmlns="http://www.w3.org/2000/svg">
<path d="M0 26V2H2.34664L9.3561 17.9407V2H12.2208V26H10.0266L2.92569 9.61481V26H0Z" fill="#1F2937"/>
<path d="M14.7601 26L20.002 2H23.3238L28.5962 26H25.3352L24.2076 19.9556H19.1791L17.9905 26H14.7601ZM19.6362 17.5556H23.7505L21.6781 6.74074L19.6362 17.5556Z" fill="#1F2937"/>
<path d="M31.0399 26L31.4971 2H34.8799L39.238 21.4667L43.6265 2H46.9788L47.436 26H44.6627L44.3884 8.57778L40.2132 26H38.2627L34.118 8.57778L33.8437 26H31.0399Z" fill="#1F2937"/>
<path d="M49.8788 26L55.1207 2H58.4425L63.7149 26H60.4539L59.3263 19.9556H54.2978L53.1092 26H49.8788ZM54.7549 17.5556H58.8692L56.7968 6.74074L54.7549 17.5556Z" fill="#1F2937"/>
<path d="M66.2196 26V2H68.5662L75.5757 17.9407V2H78.4404V26H76.2462L69.1453 9.61481V26H66.2196Z" fill="#1F2937"/>
<path d="M82.3206 26V2H87.6844C93.1701 2 94.9986 4.45926 94.9986 9.31852V18.1481C94.9986 23.2444 93.1396 26 87.9587 26H82.3206ZM85.7644 23.6H87.7149C91.4634 23.6 91.5244 21.4074 91.5244 17.5259V9.73333C91.5244 6.02963 91.1586 4.48889 87.6234 4.48889H85.7644V23.6Z" fill="#1F2937"/>
<path d="M98.3919 26V2H101.836V23.6H108.144V26H98.3919Z" fill="#1F2937"/>
<path d="M109.164 26L114.406 2H117.728L123 26H119.739L118.611 19.9556H113.583L112.394 26H109.164ZM114.04 17.5556H118.154L116.082 6.74074L114.04 17.5556Z" fill="#1F2937"/>
<path d="M150.522 2.59857C150.853 2.57426 151.311 2.64287 151.678 2.64125C151.927 2.64017 152.169 2.56508 152.459 2.58291C152.976 2.61532 153.433 2.82116 153.576 3.33818L153.598 12.1227C153.644 12.6171 153.89 12.9456 154.415 13.0061C155.559 13.1379 156.947 12.8872 158.089 13.012C158.499 13.0568 158.976 13.4026 159.052 13.8083C159.107 14.099 159.103 15.1622 159.052 15.4577C158.983 15.8521 158.586 16.1239 158.196 16.1952C156.286 16.3238 154.173 16.0401 152.287 16.1979C152.012 16.2211 151.732 16.3103 151.509 16.4702C150.957 16.8651 150.196 17.75 149.67 18.2541C149.105 18.796 148.355 19.2136 148.252 20.0683C148.077 22.4551 148.464 25.111 148.248 27.466C148.215 27.8242 147.916 28.2677 147.536 28.3428C147.248 28.3996 145.968 28.3915 145.666 28.3423C145.215 28.2688 144.936 27.8258 144.9 27.4093L144.914 17.7533C144.963 17.4426 145.117 17.1947 145.318 16.9553C146.391 15.676 148.054 14.5339 149.14 13.2567C149.385 12.9688 149.497 12.717 149.531 12.3388L149.532 3.37222C149.675 2.90166 150.015 2.63585 150.522 2.59911V2.59857Z" fill="#1F2937"/>
<path d="M154.119 19.3779C154.412 19.3347 155.137 19.2989 155.222 19.6652L155.208 25.1639C154.943 25.9214 154.325 25.7801 153.683 25.7927C153.472 25.797 153.317 25.7991 153.108 25.7954C152.475 25.7848 151.531 25.9546 151.408 25.079C151.324 24.4844 151.345 22.8587 151.401 22.2345C151.432 21.8866 151.555 21.7005 151.769 21.4449C152.033 21.1296 153.56 19.5788 153.833 19.4596C153.917 19.4233 154.029 19.3911 154.119 19.3779Z" fill="#1F2937"/>
<path d="M140.57 27.073C140.239 27.0985 139.781 27.0264 139.413 27.0281C139.165 27.0293 138.923 27.1081 138.633 27.0894C138.116 27.0554 137.658 26.8392 137.516 26.2964L137.494 17.0726C137.448 16.5535 137.202 16.2086 136.677 16.1451C135.532 16.0067 134.144 16.2699 133.002 16.1389C132.592 16.0918 132.116 15.7287 132.04 15.3027C131.985 14.9975 131.989 13.8811 132.04 13.5708C132.108 13.1567 132.506 12.8714 132.896 12.7965C134.806 12.6615 136.918 12.9593 138.804 12.7937C139.08 12.7693 139.36 12.6757 139.583 12.5078C140.134 12.0931 140.896 11.1639 141.422 10.6347C141.987 10.0657 142.737 9.62719 142.84 8.72977C143.014 6.22357 142.628 3.43488 142.844 0.96216C142.877 0.586061 143.176 0.120331 143.556 0.0414804C143.844 -0.0180828 145.123 -0.00957336 145.426 0.0420481C145.876 0.119197 146.156 0.584358 146.191 1.02172L146.177 11.1605C146.128 11.4867 145.975 11.7471 145.774 11.9984C144.701 13.3417 143.038 14.5409 141.952 15.8819C141.707 16.1842 141.594 16.4486 141.561 16.8457L141.559 26.2606C141.417 26.7547 141.076 27.0338 140.57 27.0724L140.57 27.073Z" fill="#1F2937"/>
<path d="M136.973 10.2892C136.68 10.3411 135.954 10.3841 135.87 9.94448L135.884 3.34613C136.149 2.43712 136.767 2.60665 137.409 2.59147C137.62 2.58641 137.774 2.58388 137.984 2.5883C138.617 2.60096 139.56 2.39727 139.684 3.44797C139.768 4.16151 139.747 6.11236 139.691 6.86132C139.66 7.27882 139.537 7.50212 139.323 7.80891C139.059 8.18719 137.532 10.0482 137.259 10.1912C137.175 10.2348 137.062 10.2734 136.973 10.2892Z" fill="#1F2937"/>
</svg>
